<svg height="512pt" viewBox="-5 0 512 512" width="512pt" xmlns="http://www.w3.org/2000/svg"><path d="m78.214844 484.628906-25.183594-336.042968-29.855469 2.234374 25.183594 336.042969c.363281 4.847657 4.585937 8.480469 9.433594 8.117188l12.308593-.921875c4.84375-.363282 8.476563-4.585938 8.113282-9.429688zm0 0" fill="#e3986d"/><path d="m465.28125 304.3125h-15.007812l-15.304688 30.234375 15.304688 30.234375h15.007812c16.699219 0 30.234375-13.539062 30.234375-30.234375s-13.535156-30.234375-30.234375-30.234375zm0 0" fill="#ffd3bc"/><path d="m465.28125 344.78125h-15.007812l-10.242188-20.234375-5.0625 10 15.304688 30.234375h15.007812c16.699219 0 30.234375-13.539062 30.234375-30.234375 0-3.507813-.601563-6.867187-1.699219-10-4.128906 11.78125-15.34375 20.234375-28.535156 20.234375zm0 0" fill="#ffbe9c"/><path d="m84.632812 304.3125h15.011719l15.300781 30.234375-15.300781 30.234375h-15.011719c-16.695312 0-30.230468-13.539062-30.230468-30.234375s13.535156-30.234375 30.230468-30.234375zm0 0" fill="#ffd3bc"/><path d="m99.644531 344.78125h-15.011719c-13.191406 0-24.402343-8.453125-28.53125-20.234375-1.097656 3.132813-1.703124 6.492187-1.703124 10 0 16.695313 13.539062 30.234375 30.234374 30.234375h15.011719l15.300781-30.234375-5.0625-10zm0 0" fill="#ffbe9c"/><path d="m99.644531 304.3125v69.976562c0 10.53125 10.128907 18.101563 20.226563 15.117188l47.300781-13.980469-12.742187 107.324219c-1.375 11.574219 7.664062 21.75 19.316406 21.75h202.421875c11.652343 0 20.691406-10.175781 19.320312-21.75l-12.746093-107.324219 47.300781 13.980469c10.101562 2.984375 20.230469-4.585938 20.230469-15.117188v-69.976562zm0 0" fill="#84a3e3"/><path d="m184.429688 482.75 10.011718-84.320312c1.808594-15.234376-12.554687-27.355469-27.265625-23.003907l-12.746093 107.324219c-1.375 11.574219 7.664062 21.75 19.320312 21.75h30c-11.65625 0-20.695312-10.175781-19.320312-21.75zm0 0" fill="#5c84d9"/><path d="m166.839844 204.433594c-49.898438 87.160156 3.328125 135.0625 53.894531 155.023437 23.566406 9.304688 36.945313 18.605469 44.511719 25.886719 5.441406 5.238281 13.984375 5.238281 19.425781 0 7.566406-7.28125 20.945313-16.582031 44.511719-25.886719 50.566406-19.960937 103.792968-67.863281 53.890625-155.023437l-108.117188-28.777344zm0 0" fill="#d5d4da"/><path d="m240.734375 359.457031c-50.566406-19.960937-103.792969-67.863281-53.894531-155.023437l98.117187-26.113282-10-2.664062-108.117187 28.777344c-49.898438 87.160156 3.328125 135.0625 53.894531 155.023437 23.566406 9.300781 36.945313 18.605469 44.511719 25.886719 5.441406 5.234375 13.984375 5.234375 19.421875 0 .09375-.089844.195312-.183594.289062-.273438-7.617187-7.238281-20.949219-16.425781-44.222656-25.613281zm0 0" fill="#a5b0bc"/><path d="m195.617188 204.433594c-13.472657 16.96875-18.960938 64.800781 31.082031 64.800781h96.519531c50.042969 0 44.554688-47.832031 31.078125-64.800781l-79.339844-28.777344zm0 0" fill="#ffd3bc"/><path d="m53.03125 148.585938-29.855469 2.234374 4.386719 58.554688c3.421875.609375 6.929688.9375 10.503906.9375 2.839844 0 5.710938-.203125 8.535156-.601562 3.746094-.53125 7.355469-1.410157 10.816407-2.574219zm0 0" fill="#d97c40"/><path d="m68.402344 145.410156c-2.371094-16.734375-17.859375-28.382812-34.59375-26.011718-16.734375 2.371093-28.378906 17.859374-26.011719 34.59375 2.371094 16.734374 17.859375 28.378906 34.59375 26.011718 16.734375-2.371094 28.382813-17.859375 26.011719-34.59375zm0 0" fill="#ebebeb"/><path d="m27.800781 143.992188c-1.320312-9.332032 1.71875-18.273438 7.566407-24.773438-.515626.046875-1.035157.105469-1.554688.179688-16.734375 2.371093-28.382812 17.859374-26.011719 34.59375 2.371094 16.738281 17.859375 28.382812 34.59375 26.015624 7.402344-1.050781 13.804688-4.667968 18.445313-9.820312-16.132813 1.457031-30.742188-9.976562-33.039063-26.195312zm0 0" fill="#d5d4da"/><path d="m363.113281 146.882812-88.15625 17.964844-88.152343-17.964844 18.222656-36.261718 69.929687-23.617188 69.929688 23.617188zm0 0" fill="#e3986d"/><path d="m216.804688 146.878906 18.222656-36.257812 54.929687-18.550782-15-5.066406-69.929687 23.617188-18.222656 36.257812 88.152343 17.96875 15-3.058594zm0 0" fill="#d97c40"/><path d="m415.136719 204.433594h-280.359375c-12.792969 0-18.53125-15.996094-8.683594-24.160156 22.40625-18.574219 60.710938-33.394532 60.710938-33.394532h176.304687s38.304687 14.820313 60.707031 33.394532c9.851563 8.164062 4.117188 24.160156-8.679687 24.160156zm0 0" fill="#84a3e3"/><path d="m156.097656 180.273438c22.402344-18.574219 60.707032-33.394532 60.707032-33.394532h-30s-38.304688 14.820313-60.707032 33.394532c-9.851562 8.164062-4.113281 24.160156 8.683594 24.160156h30c-12.796875 0-18.535156-15.996094-8.683594-24.160156zm0 0" fill="#5c84d9"/><path d="m344.886719 110.621094h-139.859375l43.574218-86.695313c2.464844-5.027343 6.257813-9.128906 10.828126-11.984375 4.570312-2.855468 9.929687-4.441406 15.527343-4.441406 11.199219 0 21.425781 6.367188 26.359375 16.425781zm0 0" fill="#84a3e3"/><path d="m289.429688 11.941406c.171874-.109375.351562-.203125.527343-.304687-4.457031-2.652344-9.613281-4.136719-15-4.136719-5.597656 0-10.957031 1.585938-15.53125 4.441406-4.570312 2.855469-8.359375 6.957032-10.824219 11.984375l-43.574218 86.695313h30l43.574218-86.695313c2.464844-5.027343 6.257813-9.128906 10.828126-11.984375zm0 0" fill="#5c84d9"/><path d="m274.957031 283.535156c17.738281 22.171875 43.871094 12.984375 57.65625 5.703125 3.34375-1.765625 3.582031-6.410156.484375-8.578125-7.902344-5.527344-12.503906-17.632812-19.027344-23.714844-10.140624-9.453124-27.609374-15.191406-39.113281-4.761718-11.503906-10.429688-28.96875-4.691406-39.109375 4.761718-6.527344 6.082032-11.128906 18.1875-19.027344 23.714844-3.097656 2.167969-2.859374 6.8125.484376 8.578125 13.78125 7.28125 39.914062 16.46875 57.652343-5.703125zm0 0" fill="#ebebeb"/><path d="m327.84375 244.070312c4.144531 0 7.5-3.355468 7.5-7.5v-11.28125c0-4.144531-3.355469-7.5-7.5-7.5-4.140625 0-7.5 3.355469-7.5 7.5v11.28125c0 4.144532 3.359375 7.5 7.5 7.5zm0 0"/><path d="m222.058594 244.070312c4.140625 0 7.5-3.355468 7.5-7.5v-11.28125c0-4.144531-3.359375-7.5-7.5-7.5-4.144532 0-7.5 3.355469-7.5 7.5v11.28125c0 4.144532 3.355468 7.5 7.5 7.5zm0 0"/><path d="m17.984375 182.011719 5.292969 70.625c.308594 4.128906 3.910156 7.226562 8.039062 6.917969 4.132813-.3125 7.230469-3.910157 6.917969-8.039063l-4.792969-63.988281c.097656.011718.195313.011718.296875.027344 4.863281.578124 9.878907.164062 14.601563-1.144532l9.136718 121.9375c-2.808593 2.90625-5.097656 6.21875-6.828124 9.796875-3.523438 7.535157-4.644532 15.984375-2.949219 24.15625 1.824219 8.824219 6.726562 16.675781 13.988281 22.210938 0 0 9.042969 120.675781 9.042969 120.675781.054687.707031-.492188 1.339844-1.199219 1.390625 0 0-12.304688.921875-12.304688.921875-.710937.054688-1.339843-.492188-1.394531-1.199219l-15.359375-204.949219c-.308594-4.128906-3.90625-7.230468-8.039062-6.917968-4.132813.308594-7.230469 3.910156-6.917969 8.039062l15.359375 204.953125c.640625 8.546875 7.800781 15.082031 16.242188 15.082031.40625 0 13.53125-.96875 13.535156-.96875 8.855468-.652343 15.699218-8.628906 15.035156-17.472656 0 0-8.425781-112.460937-8.429688-112.515625.105469 1.351563 14.878907.453125 14.878907.730469 0 15.601562 13.707031 29.089844 29.855469 24.316406l36.386718-10.753906s-11.394531 95.957031-11.402344 96.023438c-1.878906 15.800781 10.863282 30.132812 26.765626 30.132812h202.417968c15.90625 0 28.640625-14.347656 26.769532-30.132812l-11.402344-96.023438s36.355468 10.746094 36.382812 10.753906c14.675782 4.339844 29.855469-7.046875 29.855469-22.308594v-2.007812h7.511719c20.804687 0 37.730468-16.929688 37.730468-37.734375s-16.925781-37.734375-37.730468-37.734375h-59.003906c8.21875-25.324219 4.613281-53.820312-10.714844-84.878906h19.570312c19.40625 0 28.402344-25.0625 13.472656-37.433594-19.839843-16.445312-50.746093-29.722656-60.070312-33.527344l-60.488281-120.347656c-6.140625-12.527344-19.128907-20.625-33.089844-20.625-13.867187 0-26.957031 8.109375-33.058594 20.558594l-60.523437 120.414062c-9.324219 3.804688-40.230469 17.082032-60.066406 33.527344-14.914063 12.359375-5.894532 37.433594 13.46875 37.433594h19.574218c-15.328125 31.058594-18.933594 59.554687-10.714844 84.878906h-59.007812c-4.492188 0-8.800781.792969-12.800781 2.242188l-9.023438-120.367188c9.578125-8.195312 14.917969-20.949219 13.023438-34.328125-2.644531-18.679687-18.847657-32.765625-37.691407-32.765625-22.824218 0-40.96875 20.835938-37.765624 43.453125 1.621093 11.441406 8.332031 21.152344 17.617187 26.964844zm470.023437 152.535156c0 12.535156-10.195312 22.734375-22.730468 22.734375h-7.511719v-45.464844h7.511719c12.535156-.003906 22.730468 10.195313 22.730468 22.730469zm-45.242187 39.742187c0 5.417969-5.402344 9.464844-10.601563 7.925782 0 0-47.195312-13.949219-47.304687-13.980469-5.070313-1.5-10.195313 2.84375-9.574219 8.074219l12.746094 107.328125c.410156 3.4375-.632812 6.757812-2.933594 9.347656-2.300781 2.589844-5.472656 4.015625-8.9375 4.015625h-202.421875c-3.460937 0-6.636719-1.425781-8.9375-4.015625s-3.339843-5.910156-2.933593-9.347656c0 0 12.714843-107.070313 12.746093-107.324219.617188-5.195312-4.574219-9.554688-9.574219-8.078125 0 0-47.300781 13.980469-47.300781 13.980469-5.136719 1.519531-10.605469-2.414063-10.605469-7.921875v-62.476563h42.972657c.023437.039063.046875.078125.070312.117188 10.804688 19.671875 28.617188 34.574218 48.078125 45.253906 15.195313 8.34375 31.9375 13.339844 46.800782 22.378906 5.320312 3.238282 10.484374 6.855469 14.980468 11.183594 8.136719 7.832031 21.707032 7.8125 29.824219 0 13.921875-13.394531 32.542969-19.808594 49.808594-27.59375 17.042969-7.683594 39.773437-21.207031 54.871093-42.890625 1.898438-2.722656 3.644532-5.546875 5.25-8.453125h42.972657c.003906 0 .003906 62.460938.003906 62.476562zm-187.4375-347.0625c3.710937-7.382812 11.328125-12.226562 19.625-12.226562 8.277344 0 15.980469 4.800781 19.65625 12.296875l38.109375 75.824219h-22.210938c-4.140624 0-7.5 3.359375-7.5 7.5 0 4.144531 3.359376 7.5 7.5 7.5h29.75l10.683594 21.257812h-151.980468l10.683593-21.257812h71.3125c4.144531 0 7.5-3.355469 7.5-7.5 0-4.140625-3.355469-7.5-7.5-7.5h-63.773437c0 .003906 38.117187-75.839844 38.144531-75.894532zm-126.265625 165.640626c-.816406-2.277344-.363281-5.011719 1.8125-6.820313 18.960938-15.714844 50.652344-28.957031 57.363281-31.664063h173.429688c6.707031 2.707032 38.367187 15.921876 57.359375 31.667969 4.398437 3.644531 1.757812 10.886719-3.898438 10.886719h-280.355468c-2.847657-.003906-4.902344-1.808594-5.710938-4.070312zm224.195312 54.453124c-4.203124 8.710938-12.964843 13.511719-26.070312 14.296876-.335938-.507813-.675781-1.019532-1.019531-1.523438-8.140625-12.078125-21.390625-20.980469-36.359375-20.980469-5.402344 0-10.445313 1.316407-14.855469 3.847657-4.414063-2.53125-9.453125-3.847657-14.859375-3.847657-14.839844 0-28.140625 8.765625-36.25 20.816407-.375.5625-.753906 1.125-1.125 1.6875-13.105469-.785157-21.867188-5.585938-26.074219-14.296876-5.523437-11.441406-2.078125-26.867187 2.917969-35.386718h150.777344c4.996094 8.519531 8.445312 23.945312 2.917968 35.386718zm-120.308593 26.050782c.015625-.023438.03125-.050782.046875-.074219 6.121094-9.539063 14.691406-19.183594 27.097656-19.183594 3.863281 0 7.167969 1.222657 9.820312 3.625 2.859376 2.59375 7.214844 2.59375 10.074219 0 2.652344-2.402343 5.957031-3.625 9.820313-3.625 13.023437 0 20.519531 9.433594 27.105468 19.195313.011719.019531.027344.042968.046876.070312 2.496093 3.777344 5.28125 7.722656 8.738281 10.921875-6.132813 2.878907-14.164063 5.667969-22.242188 5.667969-9.253906 0-16.664062-3.636719-22.648437-11.117188-2.957032-3.695312-8.761719-3.691406-11.714844 0-5.984375 7.480469-13.394531 11.117188-22.648438 11.117188-8.078124 0-16.113281-2.789062-22.246093-5.667969 3.460937-3.199219 6.242187-7.144531 8.75-10.929687zm-50.03125-61.4375c-4.972657 12.679687-6.082031 28.863281.214843 41.910156 3.980469 8.242188 12.082032 17.722656 28.519532 21.359375-3.070313 2.566406-4.75 6.367187-4.496094 10.402344.269531 4.375 2.753906 8.210937 6.636719 10.261719 7.859375 4.152343 19.902343 9.101562 32.65625 9.101562 10.863281 0 20.578125-3.632812 28.503906-10.59375 7.925781 6.960938 17.640625 10.59375 28.503906 10.59375 12.75 0 24.796875-4.949219 32.652344-9.101562 3.882813-2.050782 6.367187-5.886719 6.636719-10.261719.253906-4.035157-1.421875-7.835938-4.492188-10.402344 16.4375-3.636719 24.535156-13.117187 28.515625-21.359375 6.300781-13.046875 5.1875-29.230469.214844-41.910156h11.683594c16.757812 30.78125 21.066406 58.304687 12.800781 81.867187-9.367188 26.707031-33.964844 45.167969-59.023438 56.160157-18.5625 8.144531-38.125 15.683593-52.980468 29.980468-2.503906 2.410156-6.519532 2.40625-9.023438 0-13.128906-12.625-30.207031-20.839844-46.976562-27.464844-27.40625-10.832031-54.878906-29.734374-65.027344-58.675781-8.269531-23.5625-3.960938-51.085937 12.800781-81.867187zm-90.78125 99.878906v45.46875s-7.507813 0-7.511719 0c-12.183594 0-22.730469-10.539062-22.730469-22.734375 0-12.339844 10.40625-22.734375 22.730469-22.734375zm-57.277344-184.972656c12.417969-1.867188 24.359375 7.25 26.113281 19.625 1.390625 9.820312-3.644531 19.097656-11.894531 23.566406-.039063.019531-.074219.042969-.113281.0625-13.71875 7.480469-31.566406-1.773438-33.746094-17.152344-1.769531-12.5 7.480469-24.277344 19.640625-26.101562zm0 0"/></svg>